<svg width="85" height="87" viewBox="0 0 85 87" fill="none" xmlns="http://www.w3.org/2000/svg">
<path d="M47.5289 64.0589C47.7277 64.0835 47.8998 64.0343 48.0125 63.9216C48.0883 63.8458 48.1744 63.7065 48.1457 63.4749L48.1395 63.4278L48.1129 63.3868C47.9756 63.1798 47.6252 62.8192 47.283 62.6655L47.2441 62.6532C46.1683 62.4135 44.574 62.2926 42.5085 62.2926C39.6622 62.2926 36.4 62.5262 33.7771 62.7147L32.8673 62.7803C32.6357 62.8028 32.4001 62.8274 32.1788 62.8376C32.3181 60.1963 32.5128 57.8623 32.7156 56.4136L32.7197 56.3849L32.7156 56.3562C32.6316 55.7968 31.9431 55.5181 31.4903 55.5673C31.1706 55.6021 30.9739 55.7947 30.9821 56.0611C30.8407 58.2639 30.6931 60.6205 30.5722 62.9565C27.1707 63.2352 25.06 63.4667 23.1523 63.7761C23.3039 63.602 23.4494 63.3868 23.5744 63.1409C24.224 61.8397 24.89 60.3233 24.89 58.9422C24.89 57.8623 24.5006 56.9463 23.6974 56.1451L23.681 56.1308C22.5211 55.1902 20.9781 54.6943 19.2179 54.6943C16.6647 54.6943 13.6422 55.721 10.9209 57.5119C9.17302 58.6963 5.10547 61.9155 5.10547 66.2208C5.10547 66.9298 5.21817 67.6265 5.43743 68.2863C6.3411 71.2063 10.3964 72.0731 13.3676 72.4707L13.4639 72.485C15.5069 72.776 18.2548 73.1694 20.1134 74.1592C17.0602 75.1899 13.0623 76.8661 10.4804 79.198C9.29392 80.2451 8.63409 81.3332 8.56852 82.3598C8.56852 84.0934 9.98653 85.0872 12.4619 85.0872C12.9865 85.0872 13.4619 85.0258 13.9516 84.954C18.8593 84.1364 23.8265 81.2492 23.8265 77.3128C23.8265 76.321 23.556 75.4768 23.0027 74.737L25.5518 73.9829L29.5313 72.8825C29.6645 72.8456 29.8284 72.7985 29.8694 72.6366C29.9104 72.4768 29.7895 72.3539 29.7157 72.2821L29.6973 72.2658C29.3612 72.0055 28.4862 71.9932 25.1604 72.7452C23.9248 73.028 22.8388 73.317 21.847 73.6243C19.7118 72.0793 16.3061 71.608 14.0438 71.2944C13.7795 71.2576 13.5295 71.2227 13.2979 71.1899C9.464 70.6674 7.21814 69.567 6.80421 68.0076C6.67716 67.5302 6.61774 67.0937 6.61774 66.6367C6.61774 64.0835 8.51115 61.436 12.0931 58.9791C13.7242 57.8623 17.177 56.2005 19.9986 56.2005C21.1052 56.2005 22.0109 56.4689 22.6728 56.9853C23.1728 57.4586 23.4166 58.1389 23.4166 59.0672C23.4166 60.2475 22.9761 61.7721 22.1359 63.4893C22.0519 63.7085 22.0396 63.8622 22.0621 63.9749C21.8593 64.0569 21.7589 64.2392 21.8019 64.4565C21.8818 64.8622 22.4494 65.3028 22.9781 65.2208C25.3797 64.8007 27.7239 64.604 30.2054 64.395L30.521 64.3683C30.437 66.1388 30.3714 67.9666 30.3386 69.5404C30.3099 70.692 30.2731 72.4768 30.2731 74.4296C30.2731 78.7656 30.4022 83.8106 30.7689 84.9745C30.937 85.4745 31.5107 86.0524 31.9288 86.0524C31.9595 86.0524 31.9902 86.0483 32.0189 86.0421C32.0988 86.0237 32.357 85.9294 32.2997 85.4971L32.2935 85.4684C31.9329 84.1672 31.7505 81.4971 31.7505 77.5341C31.7505 75.5136 31.7956 73.4768 31.8345 71.6797C31.8529 70.8744 31.8693 70.1305 31.8796 69.4891L32.0988 64.2454C32.2669 64.2351 32.4267 64.2167 32.5927 64.1942L33.2259 64.1409C35.7258 63.9421 39.152 63.6696 42.3507 63.6696C44.5351 63.6696 46.2256 63.7946 47.533 64.0569L47.5289 64.0589ZM21.513 75.2206C21.9781 75.7862 22.2138 76.4337 22.2158 77.1386C22.0232 80.7431 17.0048 83.0238 13.6791 83.6754C13.05 83.8024 12.4742 83.866 11.9722 83.866C10.6832 83.866 9.91276 83.4582 9.91276 82.7779C9.91276 82.3168 10.2201 81.4971 11.6873 80.2144C13.7221 78.4152 17.0274 76.737 21.513 75.2206Z" fill="white"/>
<path d="M56.4757 81.688L56.4491 81.6737C56.3876 81.5487 56.3077 81.268 56.2011 80.8868L56.1007 80.5323C55.947 79.8213 55.8466 78.8725 55.8138 77.7721C55.7175 76.8439 55.7175 75.8439 55.7175 74.7845C55.7175 73.3132 55.7503 71.803 55.8138 70.2948C55.8487 68.9813 55.9183 67.717 56.0392 66.1945C56.0556 65.9219 56.1314 65.5531 56.2114 65.1617C56.2851 64.7969 56.363 64.422 56.3937 64.1023C56.5638 62.4958 56.9122 58.7274 56.945 57.293V57.2766V57.2602C56.8835 56.8012 56.2257 56.3319 55.781 56.3176C55.5331 56.3114 55.3569 56.4426 55.3118 56.6639H55.3159C55.195 57.2295 54.6192 61.9118 54.4348 64.133L54.3712 65.2805C53.9737 67.0346 53.5782 68.551 52.9676 70.1882L52.8794 70.1575C52.0741 69.9485 51.4102 69.8604 50.6602 69.8604C49.3775 69.8604 48.3283 70.2374 47.5394 70.9874C47.1869 71.3399 46.9431 71.8112 46.8468 72.3214C45.4062 73.5447 44.0148 74.1964 42.7095 74.2578C42.0169 74.1759 41.7874 73.639 41.646 72.7968C41.646 72.2394 41.6788 71.7312 41.7096 71.514C41.771 71.0468 41.1583 70.594 40.7137 70.5161C40.3551 70.4546 40.1809 70.6452 40.142 70.8276C39.9391 71.7415 38.5559 73.9853 37.4289 74.43C37.1441 74.5427 36.9084 74.5304 36.6994 74.3869C36.4474 74.2271 36.3101 73.8173 36.3101 73.2333C36.3101 72.4177 36.601 71.5653 36.9555 71.3378C37.0908 71.2558 37.1748 71.1329 37.1933 70.9915C37.2137 70.8173 37.1379 70.6411 36.9719 70.4751C36.6584 70.1227 36.2261 69.9423 35.8797 70.0284C35.4986 70.1555 35.2712 70.5304 35.1195 70.8337C34.8039 71.389 34.7363 72.0222 34.7363 72.4546C34.7363 72.887 34.808 73.348 34.9412 73.7476C35.3265 74.9341 36.4945 75.8295 37.6584 75.8295C38.9371 75.8295 39.8592 74.8808 40.5354 73.9546C41.0989 74.9791 42.1235 75.6021 43.2731 75.6021C45.0333 75.7045 46.3734 74.6984 47.1152 73.9546C47.314 74.3152 47.6029 74.6472 47.9841 74.9464C48.7976 75.5488 49.4697 75.6328 50.0885 75.6328H50.0947C51.6725 75.5201 53.0044 74.1882 54.1458 71.5673V71.678C54.1458 72.1185 54.1376 72.5653 54.1294 73.0099C54.1212 73.4484 54.113 73.8808 54.113 74.2988C54.113 75.35 54.1458 76.3459 54.2114 77.2476C54.2401 78.2557 54.3569 79.2905 54.5372 80.1573C54.6479 80.7659 54.8917 81.6184 55.4265 82.229C55.6458 82.479 56.0331 82.7884 56.4818 82.9114C56.5536 82.9237 56.6191 82.9298 56.6806 82.9298C56.8486 82.9298 56.9736 82.8806 57.0556 82.7823C57.1232 82.7003 57.1868 82.5528 57.1007 82.3212C57.0167 82.0671 56.7175 81.8028 56.4798 81.6839L56.4757 81.688ZM48.6767 74.1042C48.5271 73.9976 48.3734 73.7169 48.3734 73.3337C48.3734 73.0366 48.4656 72.5837 48.9 72.1144C49.4164 71.5632 50.2115 71.305 51.402 71.305C51.7053 71.305 52.0496 71.3255 52.4143 71.3645C51.7196 72.7189 50.7565 74.2087 49.3877 74.3542C49.0988 74.3542 48.8836 74.2783 48.6767 74.1001V74.1042Z" fill="white"/>
<path d="M59.6665 67.6328C59.8345 67.7229 60.0435 67.7742 60.2321 67.7742C60.4247 67.7742 60.5989 67.7209 60.689 67.6L60.7013 67.5836C60.7792 67.4545 60.9185 67.0938 61.0661 66.7025C61.0968 66.6205 61.1214 66.5549 61.1296 66.5344C61.2402 66.3131 61.2484 66.0693 61.2484 65.9238C61.2689 65.8357 61.2566 65.7394 61.2075 65.6471C61.0989 65.4381 60.8243 65.2599 60.4903 65.1799C60.2054 65.0713 59.894 65.0795 59.7116 65.2025C59.6091 65.2722 59.5497 65.3726 59.5456 65.4894L59.4862 65.9381C59.4657 65.9894 59.437 66.0693 59.4042 66.1594C59.3407 66.3295 59.2157 66.6717 59.1686 66.766C59.0866 66.848 59.0538 66.9606 59.0743 67.0815C59.1153 67.307 59.3468 67.5221 59.6685 67.6348L59.6665 67.6328Z" fill="white"/>
<path d="M81.6929 68.9031C81.5085 68.5752 81.0331 68.2535 80.5843 68.3109C79.3835 68.4748 75.9717 69.3068 75.527 70.9543L75.4553 70.9584C74.898 70.9953 73.9635 71.0588 72.9144 71.0588C72.0804 71.0588 71.3119 71.0199 70.6234 70.9399C70.0886 70.3293 69.3284 69.9256 68.4595 69.7965C67.7034 69.7617 67.4206 70.2084 67.2854 70.6039H67.2505L67.2178 70.6162C66.8079 70.7576 66.3878 71.2145 66.0846 71.8375C64.4985 73.11 62.1482 74.5833 60.6871 74.5833C60.3716 74.5833 60.0908 74.4973 59.8839 74.3436C59.5396 74.0218 60.0703 70.6531 60.3142 70.3088L60.3572 70.2658L60.3695 70.2043C60.4269 69.9133 60.1482 69.5773 59.722 69.4215L59.7015 69.4154C59.5314 69.3723 59.1113 69.2904 58.8675 69.4441C58.7958 69.4891 58.7445 69.5527 58.7179 69.6264C58.3675 70.1879 58.1523 71.194 58.1523 72.2657C58.1523 73.5219 58.4392 74.5772 58.9167 75.0874C59.6421 75.8907 60.6543 76.0239 61.3736 75.9952C62.8039 75.9337 64.4903 74.9112 65.7055 73.8887C65.7116 73.9317 65.7157 73.9747 65.7239 74.0157C65.9001 75.0013 66.7854 76.0874 68.0784 76.1571C69.7812 76.2698 71.1091 75.2636 71.398 73.6632C71.48 73.2575 71.48 72.8415 71.398 72.4481C73.0066 72.4973 74.7402 72.3067 75.6623 72.0711C75.9512 72.6223 76.5229 72.9317 77.0782 73.2309C77.2073 73.3006 77.3385 73.3702 77.4696 73.4481C77.8938 73.6817 78.5618 74.0239 79.2073 74.3538C79.3528 74.4296 79.4983 74.5034 79.6376 74.5751C78.818 74.7186 77.8405 74.8108 77.0823 74.8108C76.6787 74.8108 76.3344 74.78 76.0598 74.7186C75.5885 74.612 75.443 74.8599 75.402 74.9706C75.2832 75.3026 75.5701 75.7821 75.9061 75.9501C76.3918 76.1448 77.1745 76.2554 78.0516 76.2554C78.9286 76.2554 79.7708 76.155 80.3692 75.989C80.9532 75.8312 81.4388 75.3784 81.5515 74.8886C81.6355 74.5177 81.5085 74.1632 81.1888 73.8846C80.6601 73.4604 79.9409 73.071 79.0311 72.5752C78.8036 72.4502 78.5639 72.3211 78.32 72.1858C78.2196 72.1264 78.1172 72.067 78.0168 72.0096C77.4881 71.7084 77.1213 71.4789 77.2073 71.2781C77.4327 70.7473 79.195 70.2617 80.361 69.94C80.8261 69.8129 81.2646 69.692 81.5823 69.5793L81.6376 69.5609L81.6745 69.5158C81.8077 69.3498 81.8138 69.1264 81.6888 68.9031H81.6929ZM69.4267 74.1469C69.1255 74.6346 68.6849 74.9153 68.1829 74.9378C67.7485 74.9645 67.4247 74.7841 67.2628 73.8456C67.1194 73.0383 67.6665 72.0219 68.0251 71.7104C68.4411 71.9461 68.98 72.1243 69.6624 72.2514C69.8714 72.8252 69.7812 73.571 69.4267 74.1469Z" fill="white"/>
<path d="M45.2981 0C39.1378 0 33.6515 3.94114 31.6476 9.80947L23.4266 33.8818L11.7934 0H0L15.1639 41.659C16.3786 44.9978 19.5689 47.242 23.1012 47.242H23.6268C27.1592 47.242 30.3495 44.9994 31.5642 41.659L46.7281 0H45.2981Z" fill="white"/>
<path d="M70.1458 5.59636C68.9444 2.24922 65.7458 0 62.1901 0C58.6344 0 55.4358 2.24922 54.2344 5.59636L39.3809 46.9633H41.2079C46.6358 46.9633 55.2405 43.7263 57.67 38.4086H67.2725L69.9239 46.9633H85.001L70.1475 5.59636H70.1458ZM67.3493 37.007C67.1974 37.3491 66.8254 37.5727 66.4132 37.5727H58.1689C57.7117 37.5727 57.3112 37.299 57.1944 36.9052L56.9291 36.0126H67.7914L67.3493 37.0054V37.007ZM67.7914 34.958C67.7914 35.1216 67.658 35.255 67.4944 35.255H57.2261C57.0626 35.255 56.9291 35.1216 56.9291 34.958V34.2088C56.9291 34.0453 57.0626 33.9118 57.2261 33.9118H67.4944C67.658 33.9118 67.7914 34.0453 67.7914 34.2088V34.958ZM69.5251 28.4189L67.5445 32.9074H56.9041L54.9235 28.4189C54.6916 27.895 54.6982 27.296 54.9419 26.7771L61.7145 12.3423C61.6795 12.2739 61.6595 12.1972 61.6528 12.1171H58.1255C58.0971 12.4024 57.8602 12.6243 57.5682 12.6243C57.2578 12.6243 57.0042 12.3724 57.0042 12.0604C57.0042 11.7483 57.2562 11.4964 57.5682 11.4964C57.8602 11.4964 58.0971 11.72 58.1255 12.0036H61.6545C61.6879 11.7183 61.9281 11.4964 62.2235 11.4964C62.5188 11.4964 62.7574 11.7183 62.7924 12.0036H66.6218C66.6385 11.7066 66.8821 11.4697 67.1824 11.4697C67.4828 11.4697 67.7464 11.7216 67.7464 12.0337C67.7464 12.3457 67.4944 12.5976 67.1824 12.5976C66.8988 12.5976 66.6668 12.3874 66.6268 12.1154H62.7924C62.7858 12.1955 62.7674 12.2723 62.7307 12.3407L69.5034 26.7754C69.747 27.2943 69.7537 27.8933 69.5217 28.4173L69.5251 28.4189Z" fill="white"/>
<path d="M62.7154 21.9872V12.3696C62.6136 12.5348 62.4317 12.6466 62.2232 12.6466C62.0146 12.6466 61.8327 12.5365 61.7309 12.3696V21.9872C61.0101 22.2008 60.4878 22.8716 60.4962 23.6608C60.5062 24.6135 61.2888 25.3794 62.2415 25.3677C63.1943 25.3577 63.9601 24.5752 63.9484 23.6224C63.9401 22.8465 63.4212 22.1958 62.7137 21.9855L62.7154 21.9872Z" fill="white"/>
</svg>
