<svg width="128" height="33" viewBox="0 0 128 33" fill="none" xmlns="http://www.w3.org/2000/svg">
<path d="M95.4074 0.421875C95.7202 0.450462 96.0331 0.478602 96.3459 0.507798C96.5457 0.526448 96.7477 0.533888 96.9446 0.56837C97.8172 0.721216 98.6424 0.979485 99.3948 1.45881C100.524 2.1783 101.2 3.18251 101.502 4.42691C101.609 4.86447 101.634 5.32029 101.692 5.80182C101.691 6.27101 101.693 6.70614 101.695 7.14127C101.674 7.95615 101.502 8.73923 101.155 9.48452C100.94 9.94386 100.646 10.3472 100.295 10.7246C99.7162 11.3475 99.0098 11.7714 98.2012 12.0428C97.8269 12.1685 97.4341 12.2428 97.0501 12.3421C97.0207 12.3497 96.995 12.3708 96.96 12.3898C97.5133 13.2442 98.0716 14.0977 98.6209 14.9565C99.2591 15.9541 99.8887 16.9567 100.523 17.9563C100.833 18.4431 101.145 18.9281 101.452 19.4394C101.373 19.4703 101.297 19.4803 101.221 19.4804C99.6191 19.4822 98.0168 19.483 96.4146 19.4839C96.0004 18.806 95.5838 18.1293 95.1728 17.4496C94.8241 16.873 94.4846 16.2913 94.1357 15.7147C93.7588 15.0918 93.3736 14.4735 92.9961 13.8508C92.7351 13.4202 92.4809 12.9856 92.2144 12.525C92.149 12.4906 92.0928 12.4781 92.0367 12.4781C89.0952 12.4772 86.1538 12.4771 83.2123 12.479C83.1552 12.479 83.098 12.5042 83.0408 12.5176C83.0411 14.8292 83.0414 17.1407 83.0221 19.4674C81.5461 19.4806 80.0898 19.4787 78.6322 19.4601C78.6305 13.1431 78.6301 6.843 78.6299 0.542855C78.6299 0.518329 78.6322 0.493804 78.6509 0.467686C84.1798 0.465784 89.6912 0.465631 95.2027 0.46337C95.2709 0.463342 95.3391 0.436305 95.4074 0.421875ZM85.4399 3.88787C84.6494 3.88787 83.859 3.88787 83.0686 3.88787C83.0686 3.89612 83.0687 3.90437 83.0688 3.91262C86.9773 3.91262 90.8858 3.91262 94.7944 3.91262C94.7944 3.90437 94.7944 3.89612 94.7944 3.88787C91.689 3.88787 88.5836 3.88787 85.4399 3.88787ZM84.4803 9.01566C85.6404 9.01566 86.8006 9.01566 87.9607 9.01566C87.9606 9.00811 87.9605 9.00055 87.9605 8.993C86.3344 8.993 84.7084 8.993 83.0824 8.993C83.0824 9.00054 83.0824 9.00808 83.0824 9.01562C83.5356 9.01562 83.9887 9.01562 84.4803 9.01566ZM93.9224 9.05384C94.2854 9.05384 94.6485 9.05384 95.0116 9.05384C95.0114 9.04586 95.0112 9.03787 95.011 9.02989C94.2091 9.02989 93.4072 9.02989 92.6053 9.02989C92.6053 9.03787 92.6053 9.04585 92.6053 9.05382C93.0315 9.05382 93.4578 9.05382 93.9224 9.05384Z" fill="#8A8585"/>
<path d="M83.1191 3.83594H94.8399C95.4456 3.83594 95.9367 4.327 95.9367 4.93276V7.89617C95.9367 8.50193 95.4456 8.993 94.8399 8.993H83.1191V3.83594Z" fill="#F2F2EE"/>
<path d="M116.814 0.0363453C117.259 0.0478498 117.705 0.0379931 118.148 0.0750232C119.294 0.170939 120.427 0.341319 121.531 0.672282C122.186 0.86876 122.821 1.10669 123.423 1.41997C124.012 1.7267 124.556 2.09518 125.069 2.51589C125.663 3.00446 126.172 3.56179 126.572 4.19807C126.863 4.65962 127.086 5.16326 127.303 5.66278C127.606 6.3608 127.784 7.09931 127.863 7.84741C127.936 8.53872 127.925 9.23845 127.945 9.93463C127.978 11.0531 127.775 12.1392 127.423 13.1999C127.113 14.1333 126.63 14.9773 125.981 15.7382C125.079 16.7961 123.943 17.5381 122.654 18.0881C121.773 18.4642 120.849 18.7048 119.905 18.8666C119.346 18.9624 118.776 19.0025 118.21 19.0565C117.939 19.0825 117.665 19.0827 117.356 19.0928C113.129 19.0923 108.937 19.0936 104.746 19.0945C104.663 19.0946 104.58 19.0903 104.496 19.0712C104.495 12.733 104.495 6.41165 104.495 0.0716713C104.593 0.0716713 104.669 0.0717577 104.744 0.0716587C106.687 0.0690915 108.63 0.0667085 110.574 0.0630875C110.642 0.062959 110.711 0.0505281 110.78 0.0438308C110.856 0.0399581 110.933 0.0326798 111.009 0.032715C112.613 0.0334541 114.216 0.0350186 115.856 0.0366572C116.199 0.0367109 116.506 0.0365281 116.814 0.0363453ZM108.933 15.6517C108.977 15.6566 109.021 15.6657 109.065 15.6658C111.623 15.6664 114.181 15.6665 116.739 15.665C116.813 15.6649 116.888 15.6457 116.998 15.6279C117.444 15.5904 117.897 15.5862 118.335 15.5066C118.85 15.4131 119.358 15.2707 119.859 15.1195C120.514 14.9219 121.115 14.6041 121.634 14.1776C122.291 13.6382 122.757 12.9593 123.032 12.1671C123.214 11.6446 123.342 11.112 123.375 10.5596C123.396 10.2134 123.448 9.86798 123.449 9.52209C123.45 9.20705 123.394 8.89224 123.376 8.57663C123.348 8.06112 123.228 7.5638 123.062 7.07633C122.718 6.06296 122.118 5.22147 121.184 4.63236C120.175 3.99638 119.038 3.70672 117.852 3.57988C117.417 3.53337 116.978 3.52273 116.518 3.4764C116.474 3.47271 116.429 3.46581 116.385 3.46579C113.972 3.46507 111.56 3.46469 109.147 3.46616C109.094 3.46619 109.04 3.48787 108.97 3.50361C108.97 3.50361 108.953 3.50103 108.922 3.5143C108.918 3.575 108.909 3.63569 108.909 3.69638C108.908 7.61183 108.908 11.5273 108.908 15.4427C108.908 15.5039 108.913 15.5651 108.933 15.6517Z" fill="#8A8585"/>
<path d="M0.149022 19.0982C0.147461 19.0676 0.14453 19.0369 0.144531 19.0063C0.144739 12.7057 0.145153 6.4051 0.1649 0.0883821C1.67134 0.0724961 3.15844 0.0727317 4.64554 0.0729672C5.05574 0.459303 5.47057 0.841227 5.8751 1.23296C6.55286 1.88929 7.2229 2.55298 7.8983 3.21157C8.84286 4.13262 9.78983 5.05139 10.7349 5.97198C11.5453 6.7614 12.3544 7.55207 13.1642 8.34205C13.9785 9.13641 14.793 9.93052 15.6073 10.7249C16.4081 11.5061 17.21 12.2864 18.0085 13.0698C18.2167 13.274 18.414 13.4885 18.6369 13.7122C18.666 13.6622 18.6818 13.5982 18.6818 13.5342C18.683 9.04623 18.6829 4.55827 18.6829 0.0703125C18.6829 0.0703125 18.683 0.0730909 18.6997 0.0724196C20.1713 0.0717486 21.6263 0.0717485 23.0821 0.0717485C23.0821 6.42667 23.0821 12.7544 23.0821 19.0946C21.5793 19.0946 20.0904 19.0946 18.6016 19.0946C18.1152 18.6209 17.6288 18.1471 17.1423 17.6734C17.1109 17.6428 17.0794 17.6123 17.0477 17.582C16.4171 16.9806 15.7831 16.3825 15.1569 15.7769C14.4202 15.0643 13.6897 14.3457 12.9575 13.6288C12.3641 13.0478 11.7733 12.4642 11.1792 11.8838C10.3296 11.0539 9.47751 10.2264 8.62745 9.39691C7.92089 8.70746 7.21528 8.01712 6.51011 7.32635C5.88123 6.71031 5.25353 6.09316 4.61135 5.45425C4.58431 5.4975 4.5598 5.563 4.55978 5.6285C4.55789 10.1182 4.55797 14.6079 4.55789 19.0976C4.55789 19.0976 4.55787 19.095 4.54107 19.0949C3.06585 19.0959 1.60744 19.0971 0.149022 19.0982Z" fill="#8A8585"/>
<path d="M44.8975 12.2733C44.8616 12.9063 44.8612 13.5435 44.7807 14.1713C44.6802 14.9554 44.4465 15.7144 44.0556 16.4144C43.7731 16.9202 43.4004 17.3582 42.9336 17.7326C42.075 18.4213 41.0765 18.7786 40.0007 18.9936C39.3839 19.1169 38.763 19.1955 38.1357 19.2022C36.2258 19.2226 34.3152 19.2617 32.4061 19.2284C31.4162 19.2111 30.4286 19.0592 29.477 18.7584C28.884 18.571 28.3115 18.3474 27.7924 18.0032C26.8167 17.3562 26.1858 16.488 25.8881 15.3853C25.784 15 25.701 14.618 25.7031 14.2181C25.7047 13.9315 25.6588 13.644 25.671 13.3583C25.6869 12.9855 25.735 12.6136 25.7817 12.2428C25.7872 12.1996 25.868 12.1587 25.9217 12.1303C25.9511 12.1147 25.9968 12.1273 26.0352 12.1272C27.3717 12.1272 28.7082 12.1272 30.0447 12.1272C30.1137 12.1272 30.1827 12.1272 30.2846 12.1272C30.2607 12.3235 30.2359 12.4995 30.2183 12.6763C30.1581 13.2803 30.136 13.8813 30.4178 14.4494C30.6882 14.9944 31.18 15.2759 31.7525 15.4349C32.1144 15.5354 32.4969 15.5665 32.8601 15.6636C33.2762 15.7748 33.697 15.768 34.1491 15.7892C34.8489 15.8051 35.519 15.8086 36.1891 15.8104C36.2116 15.8104 36.2341 15.792 36.2566 15.7822C36.6536 15.7547 37.054 15.7495 37.4468 15.6943C38.0104 15.615 38.5699 15.5141 39.0885 15.259C39.7074 14.9544 40.0802 14.4669 40.2388 13.8377C40.3438 13.4209 40.3773 12.9874 40.4565 12.5332C40.4745 12.3824 40.4826 12.2599 40.4827 12.1373C40.4833 8.19933 40.4832 4.26132 40.4832 0.32331C40.4832 0.245789 40.4832 0.168267 40.4832 0.0722656C41.9729 0.0722656 43.4363 0.0722656 44.8997 0.0722656C44.8997 0.0722656 44.8971 0.0724991 44.8972 0.0887079C44.8974 4.16104 44.8975 8.21716 44.8975 12.2733Z" fill="#8A8585"/>
<path d="M35.4397 27.4888C35.825 27.1205 36.2081 26.7502 36.5961 26.3846C36.9873 26.016 37.3678 25.6349 37.7808 25.29C38.4452 24.7353 39.1303 24.2033 39.8121 23.6681C39.9265 23.5783 40.0655 23.5151 40.1988 23.4502C40.4134 23.3456 40.7333 23.5406 40.7525 23.7737C40.778 24.0837 40.6401 24.3264 40.4526 24.5643C40.1549 24.9418 39.8485 25.3171 39.5944 25.7216C39.0966 26.514 38.7369 27.3707 38.4823 28.2613C38.3112 28.8601 38.1744 29.4708 38.0728 30.0839C38.0006 30.5199 37.9937 30.9688 37.9937 31.4119C37.9936 31.7365 38.0914 32.0521 38.2604 32.3379C38.3993 32.5729 38.7006 32.6422 39.0678 32.5253C39.5391 32.3753 39.9679 32.1456 40.3715 31.8682C40.4344 31.825 40.5319 31.8283 40.6135 31.8101C40.5993 31.8987 40.6184 32.0167 40.5659 32.0714C40.113 32.5427 39.5693 32.8966 38.9014 32.9814C38.0952 33.0837 37.5464 32.7666 37.3443 31.9307C37.2626 31.5925 37.2455 31.2293 37.2661 30.8811C37.3079 30.1729 37.4322 29.4741 37.6218 28.7858C37.8611 27.9168 38.1662 27.0713 38.5723 26.2619C38.8665 25.6755 39.1825 25.0992 39.5014 24.4945C39.2921 24.6388 39.0813 24.7619 38.8979 24.9151C38.4728 25.2704 38.0519 25.6313 37.6459 26.0066C37.1329 26.4808 36.6181 26.9555 36.1379 27.4597C35.6757 27.945 35.254 28.4661 34.8198 28.9757C34.6288 29.2 34.2933 29.1513 34.1109 28.8694C33.935 28.5974 34.0778 28.3718 34.2209 28.1505C34.8339 27.2026 35.3777 26.2225 35.7282 25.1537C35.7858 24.9782 35.8396 24.7883 35.8293 24.6085C35.8129 24.3206 35.6955 24.2554 35.4525 24.3594C35.1083 24.5067 34.7592 24.6749 34.47 24.9021C33.9989 25.2722 33.5454 25.6719 33.1365 26.1044C32.3439 26.9428 31.6649 27.8655 31.0792 28.8505C30.6951 29.4963 30.3522 30.1586 30.11 30.8673C30.0513 31.039 29.8978 31.1405 29.7205 31.1811C29.473 31.2377 29.2361 30.9963 29.3271 30.7617C29.4876 30.348 29.6701 29.9412 29.8641 29.5408C30.0008 29.2588 30.1771 28.9948 30.3265 28.7182C30.7841 27.8713 31.227 27.0168 31.6956 26.1754C32.0493 25.5403 32.3735 24.8953 32.5786 24.2009C32.705 23.7729 32.8061 23.3458 32.5839 22.9085C32.4447 22.6345 32.2087 22.4815 31.9264 22.4584C31.4749 22.4215 31.0173 22.4357 30.563 22.4499C29.6821 22.4773 28.825 22.6586 27.9851 22.8965C27.2171 23.1141 26.4528 23.3536 25.7088 23.6365C25.0372 23.8917 24.382 24.1948 23.7435 24.5201C22.9825 24.9077 22.2467 25.3431 21.5834 25.8764C21.1906 26.1923 20.7968 26.512 20.4439 26.8671C20.0374 27.2762 19.6963 27.7371 19.5472 28.3028C19.4843 28.5412 19.4659 28.7801 19.5501 29.0118C19.6623 29.3203 20.1085 29.5217 20.4631 29.446C20.755 29.3837 21.0477 29.3247 21.3413 29.2704C21.5156 29.2382 21.6709 29.3689 21.6694 29.5834C21.368 29.6483 21.0583 29.7501 20.7421 29.7747C20.2655 29.8119 19.7811 29.8125 19.3384 29.5846C18.9577 29.3887 18.7719 29.0856 18.7538 28.6658C18.7268 28.0421 19.0062 27.5388 19.3813 27.0662C19.911 26.3987 20.5859 25.8851 21.2869 25.3966C22.2321 24.7382 23.26 24.2177 24.3127 23.7465C25.5723 23.1828 26.8821 22.7425 28.2406 22.452C28.8554 22.3206 29.4783 22.2229 30.0995 22.1206C30.2916 22.089 30.4899 22.0903 30.6856 22.0803C30.9642 22.0661 31.2436 22.0384 31.5217 22.0471C31.9028 22.0589 32.2791 22.1026 32.6482 22.2202C33.1349 22.3752 33.4318 22.8328 33.4552 23.2885C33.4848 23.8673 33.296 24.4044 33.0495 24.9205C32.8287 25.383 32.581 25.8336 32.333 26.3071C32.3187 26.3414 32.3165 26.3582 32.3143 26.3749C32.3326 26.3653 32.3508 26.3557 32.3691 26.3461C32.861 25.863 33.3312 25.3568 33.8521 24.9046C34.2204 24.5849 34.6411 24.3121 35.0686 24.067C35.4162 23.8676 35.8123 23.7495 36.2328 23.8513C36.4162 23.8957 36.5486 23.9901 36.6128 24.1849C36.7427 24.5791 36.652 24.9536 36.4897 25.3005C36.1529 26.0203 35.7761 26.7228 35.4036 27.45C35.3893 27.4842 35.3871 27.5009 35.3849 27.5176C35.4031 27.508 35.4214 27.4984 35.4397 27.4888Z" fill="#FF6600"/>
<path d="M98.6602 29.5898C98.7949 29.5226 98.9179 29.4635 99.0325 29.4086C98.9021 29.2213 98.7543 29.0416 98.6434 28.843C98.3789 28.3696 98.5727 27.9806 98.9919 27.6623C99.3951 27.3562 99.8579 27.1402 100.354 27.0105C100.728 26.9127 101.104 26.8562 101.492 27.0102C101.925 27.1818 101.994 27.7939 101.659 28.0366C101.425 28.2058 101.176 28.3556 100.934 28.5152C100.843 28.575 100.739 28.5789 100.695 28.4886C100.674 28.4449 100.738 28.3339 100.794 28.29C101.041 28.0974 101.276 27.8973 101.412 27.614C101.501 27.4288 101.422 27.3122 101.21 27.3159C100.622 27.3261 100.123 27.5695 99.6665 27.8961C99.5195 28.0012 99.392 28.1424 99.2868 28.2878C99.091 28.5583 99.2712 28.7753 99.4337 28.9852C99.539 29.1213 99.6467 29.1563 99.8452 29.1025C100.3 28.9796 100.767 28.8858 101.236 28.8334C101.832 28.7667 102.435 28.7581 103.033 28.7098C103.125 28.7024 103.225 28.631 103.296 28.5644C103.768 28.1201 104.233 27.6688 104.701 27.2204C104.733 27.1901 104.769 27.1645 104.841 27.1055C104.599 27.046 104.397 26.9916 104.192 26.9469C103.124 26.7133 102.058 26.4692 100.985 26.2561C100.495 26.1588 99.9918 26.1203 99.4938 26.063C99.2061 26.0299 98.9168 25.9963 98.6276 25.9909C97.7678 25.9746 96.9226 26.0618 96.115 26.3704C96.2888 26.4973 96.3087 26.644 96.1619 26.7943C95.8875 27.0751 95.6016 27.3457 95.3335 27.6318C95.1756 27.8003 95.0427 27.9903 94.8972 28.1724C95.1348 28.3581 95.3745 28.3311 95.6093 28.2453C95.8055 28.1736 95.9977 28.0867 96.1808 27.988C96.3742 27.8836 96.6453 27.8741 96.8204 27.9912C96.928 28.0633 96.9268 28.209 96.8 28.3534C96.5478 28.6406 96.2697 28.9086 96.0357 29.2085C95.684 29.6593 95.3401 30.1183 95.0334 30.5978C94.8469 30.8895 94.7285 31.2232 94.5968 31.5445C94.5507 31.6569 94.5229 31.7947 94.545 31.9108C94.6043 32.223 94.7126 32.2793 95.0514 32.2948C95.3968 32.3105 95.7104 32.2138 96.0067 32.0692C96.4347 31.8604 96.8498 31.6272 97.2723 31.4079C97.3512 31.3669 97.4393 31.3426 97.5275 31.3089C97.5972 31.4886 97.5237 31.5712 97.4037 31.6699C97.0496 31.9611 96.6816 32.227 96.2579 32.4185C95.8491 32.6032 95.4163 32.6908 94.9688 32.6939C94.4958 32.6972 94.0951 32.4322 94.0428 32.0416C94.0056 31.7635 94.0173 31.4615 94.0905 31.191C94.2941 30.4394 94.7156 29.7865 95.1913 29.1663C95.3138 29.0066 95.4492 28.8559 95.5702 28.7113C95.3166 28.6676 95.0521 28.622 94.7501 28.5699C94.2997 29.1084 93.6836 29.5487 93.0488 29.9627C92.4541 30.3506 91.832 30.7099 91.1058 30.805C90.7846 30.8471 90.4479 30.901 90.1158 30.7857C89.7184 30.6476 89.5788 30.4028 89.6634 30.0085C89.768 29.5212 90.0687 29.1506 90.3983 28.7961C90.5497 28.6333 90.7423 28.5059 90.8948 28.3438C90.9869 28.2459 91.032 28.1086 91.1084 27.9952C91.2941 27.7195 91.7264 27.6132 92.0153 27.7669C92.1525 27.8399 92.1405 28.0913 92.0002 28.2116C91.6085 28.5478 91.2032 28.8714 90.8348 29.23C90.5603 29.4972 90.2964 29.7865 90.1679 30.1564C90.1051 30.3372 90.1725 30.441 90.3699 30.4857C90.8015 30.5836 91.1978 30.4462 91.5889 30.3041C92.3069 30.0432 92.9116 29.6086 93.4931 29.1388C93.81 28.8827 94.1381 28.6394 94.4619 28.3913C94.502 28.3606 94.5469 28.3356 94.5666 28.3229C94.4552 27.9921 94.4438 27.7067 94.5846 27.4232C94.8337 26.9218 95.1492 26.4729 95.6551 26.1765C96.1184 25.9051 96.6189 25.718 97.1574 25.6608C97.7094 25.6022 98.2661 25.551 98.8203 25.5549C99.3085 25.5584 99.7998 25.6204 100.283 25.696C101.028 25.8124 101.77 25.9484 102.507 26.103C103.059 26.2188 103.601 26.3803 104.149 26.5147C104.463 26.5916 104.781 26.653 105.096 26.7248C105.262 26.7627 105.346 26.6354 105.456 26.5647C105.549 26.5045 105.64 26.4336 105.713 26.3524C105.784 26.2745 105.853 26.1841 105.887 26.0875C106.051 25.6147 106.784 25.4096 107.144 25.7541C107.189 25.7978 107.178 25.9756 107.127 26.0187C106.917 26.1962 106.679 26.3441 106.454 26.5059C106.305 26.6135 106.159 26.7262 106.012 26.8365C106.015 26.8581 106.018 26.8796 106.021 26.9012C106.708 26.9161 107.395 26.9572 108.081 26.9349C108.42 26.9238 108.774 26.8585 109.071 26.6527C109.376 26.4415 109.531 26.1722 109.482 25.8014C109.475 25.7556 109.546 25.6711 109.598 25.6562C109.64 25.6438 109.749 25.7003 109.757 25.739C109.877 26.3702 109.672 26.9229 108.951 27.1993C108.255 27.4657 107.525 27.4738 106.791 27.3889C106.399 27.3436 106.009 27.2732 105.616 27.2521C105.498 27.2458 105.353 27.3474 105.253 27.434C104.837 27.7927 104.412 28.1455 104.031 28.5367C103.604 28.9756 103.149 29.3986 102.878 29.9603C102.693 30.3442 102.94 30.5704 103.285 30.5966C103.937 30.646 104.542 30.4697 105.125 30.2225C105.863 29.9091 106.51 29.4563 107.121 28.9524C107.239 28.8545 107.364 28.761 107.498 28.6842C107.55 28.6541 107.634 28.6755 107.704 28.6735C107.698 28.7287 107.713 28.7978 107.684 28.8365C107.595 28.9539 107.502 29.0731 107.389 29.1675C106.741 29.709 106.072 30.2244 105.282 30.5699C104.815 30.7745 104.324 30.9016 103.814 30.9679C103.466 31.013 103.126 31.0259 102.785 30.9276C102.274 30.7802 102.228 30.4144 102.3 30.0435C102.374 29.6673 102.621 29.3752 102.847 29.0743C102.861 29.055 102.875 29.0353 102.888 29.0149C102.89 29.0113 102.886 29.0037 102.885 28.998C102.457 28.914 100.325 29.2296 99.8991 29.442C99.9385 29.5589 99.984 29.6755 100.017 29.7953C100.114 30.1471 99.966 30.5054 99.6597 30.7092C99.245 30.9852 98.7899 31.1505 98.2871 31.1836C98.0829 31.197 97.8735 31.2086 97.6725 31.181C97.2536 31.1233 97.1972 30.8834 97.3957 30.5581C97.5905 30.239 97.9114 30.0313 98.2281 29.8308C98.3629 29.7455 98.508 29.6752 98.6602 29.5898ZM98.6105 30.6696C98.7797 30.5819 98.9561 30.5048 99.1166 30.4044C99.4543 30.1932 99.4954 29.9167 99.2346 29.5832C98.6822 29.8845 98.1539 30.2095 97.8132 30.7891C98.1104 30.8609 98.3438 30.7579 98.6105 30.6696Z" fill="#FF6600"/>
<path d="M56.2127 28.5588C56.0907 28.7202 55.9786 28.8717 55.8665 29.0233C55.8709 29.0322 55.8752 29.0411 55.8796 29.05C55.9157 29.0322 55.9556 29.0192 55.9872 28.9958C56.3298 28.7426 56.6588 28.4703 57.0167 28.239C57.2745 28.0724 57.5703 27.9721 57.9001 28.0494C58.079 28.0914 58.1774 28.2062 58.1733 28.3627C58.1673 28.5895 58.1397 28.8205 58.0819 29.04C58.0152 29.2935 57.9048 29.5363 57.815 29.7843C57.7926 29.8462 57.7669 29.9091 57.7592 29.9733C57.6985 30.4804 57.9686 30.5548 58.3988 30.4637C59.0763 30.3203 59.6736 29.9841 60.2316 29.5966C60.8474 29.1691 61.4589 28.7381 62.015 28.2332C62.5177 27.7769 63.1086 27.4327 63.8107 27.3248C64.0037 27.2951 64.2096 27.2949 64.4027 27.3238C64.7238 27.3719 64.8875 27.677 64.799 27.983C64.7026 28.3159 64.4527 28.5297 64.1779 28.7092C63.5246 29.1358 62.789 29.3747 62.0201 29.5263C61.8612 29.5577 61.7019 29.5872 61.5241 29.6211C61.4995 29.7147 61.461 29.822 61.4441 29.9324C61.4011 30.2135 61.5804 30.356 61.8426 30.4473C62.2711 30.5965 62.7043 30.5752 63.135 30.4631C64.1225 30.2062 64.9696 29.6929 65.7721 29.1054C66.0919 28.8713 66.3936 28.6142 66.6981 28.3615C66.7322 28.3332 66.7548 28.2587 66.7421 28.2171C66.6274 27.8411 66.7115 27.4965 66.9395 27.1903C67.1941 26.8483 67.4966 26.5487 67.9297 26.4121C68.0237 26.3825 68.1273 26.3532 68.2222 26.3627C68.3023 26.3707 68.4286 26.4237 68.4414 26.4772C68.4632 26.5686 68.4465 26.7043 68.386 26.7721C68.0278 27.1738 67.6493 27.5586 67.2858 27.956C67.225 28.0225 67.2041 28.1228 67.1647 28.2074C67.2748 28.2416 67.3861 28.3075 67.4949 28.3039C67.8336 28.2929 68.1307 28.152 68.4103 27.977C68.5857 27.8672 68.8956 27.8712 69.0436 28.0073C69.0868 28.0471 69.1105 28.1582 69.0839 28.2063C69.0083 28.3425 68.9157 28.4752 68.8058 28.5876C68.0759 29.3339 67.4468 30.1473 66.9885 31.0756C66.8564 31.3432 66.7653 31.6178 66.7693 31.9248C66.7717 32.0989 66.9657 32.278 67.1353 32.2922C67.5027 32.3228 67.8533 32.2518 68.1762 32.0963C68.6378 31.8741 69.085 31.6241 69.5399 31.3886C69.602 31.3565 69.6727 31.3397 69.7395 31.3158C69.7576 31.3287 69.7757 31.3417 69.7938 31.3546C69.7586 31.4414 69.7484 31.5543 69.6843 31.6108C69.1729 32.0607 68.617 32.448 67.9267 32.603C67.5978 32.6768 67.2639 32.7333 66.9205 32.6613C66.539 32.5814 66.2531 32.2593 66.2353 31.9032C66.2027 31.2483 66.4364 30.673 66.7777 30.1318C67.0877 29.6401 67.4262 29.165 67.7379 28.7036C67.5333 28.6671 67.2704 28.6202 66.9807 28.5685C66.1721 29.4133 65.1933 30.1172 64.0559 30.6014C63.7534 30.7301 63.414 30.7936 63.0845 30.8461C62.6618 30.9134 62.2366 30.9317 61.814 30.7944C61.2243 30.6027 60.8942 30.1412 61.0569 29.5396C61.0626 29.5187 61.0549 29.4944 61.0544 29.487C60.6032 29.7816 60.1581 30.0903 59.6942 30.3702C59.1245 30.714 58.5033 30.9014 57.8189 30.8541C57.2759 30.8166 56.9742 30.4127 57.1227 29.8989C57.1823 29.6929 57.2676 29.4938 57.3394 29.291C57.4013 29.1166 57.4733 28.944 57.5152 28.7651C57.5337 28.6861 57.5157 28.5687 57.4631 28.5154C57.427 28.4789 57.2861 28.4972 57.2205 28.5357C56.9601 28.6888 56.693 28.8391 56.4615 29.0279C56.0175 29.3899 55.5893 29.7706 55.1678 30.1569C54.8827 30.4182 54.6176 30.7 54.3492 30.9776C54.2547 31.0754 54.1365 31.1275 54.0372 31.0427C53.9804 30.9942 53.9564 30.8433 53.9919 30.7733C54.1606 30.4411 54.3548 30.1208 54.54 29.7962C54.5513 29.7764 54.5634 29.757 54.5971 29.7007C54.5308 29.7272 54.4975 29.7331 54.4741 29.751C53.7961 30.2688 53.055 30.6693 52.1919 30.8083C51.8502 30.8634 51.493 30.8942 51.1599 30.7288C50.9518 30.6255 50.822 30.4092 50.8493 30.1858C50.9083 29.704 51.1302 29.2958 51.4732 28.9469C51.6678 28.749 51.8789 28.5657 52.0707 28.3654C52.1418 28.291 52.1973 28.1921 52.2281 28.095C52.33 27.7746 52.97 27.5729 53.2371 27.7843C53.3954 27.9097 53.3725 28.0589 53.1812 28.2273C52.8117 28.5527 52.4374 28.874 52.0827 29.2141C51.8834 29.4051 51.7169 29.6282 51.5413 29.8412C51.4918 29.9013 51.4589 29.9752 51.4245 30.0456C51.2779 30.3449 51.389 30.5164 51.7411 30.5201C52.1023 30.5239 52.4446 30.4339 52.7807 30.3113C53.4866 30.054 54.086 29.6392 54.6552 29.1736C54.8881 28.9832 55.14 28.8138 55.388 28.6411C55.5535 28.5258 55.8537 27.8502 55.7943 27.663C55.7668 27.5765 55.6754 27.5105 55.6325 27.426C55.6038 27.3695 55.6095 27.2969 55.5998 27.2315C55.6735 27.2248 55.757 27.1928 55.8193 27.2152C56.4017 27.4249 56.593 27.9847 56.2617 28.4881C56.2484 28.5083 56.2356 28.5287 56.2127 28.5588ZM62.8496 28.9392C63.1674 28.8029 63.4968 28.6863 63.7986 28.5227C63.9706 28.4295 64.1177 28.2741 64.239 28.1199C64.3587 27.9678 64.2671 27.8127 64.0756 27.8367C63.8627 27.8634 63.6317 27.8973 63.4517 27.9987C63.0383 28.2316 62.6441 28.4982 62.2564 28.7698C62.0893 28.8869 61.9576 29.0506 61.8097 29.193C61.8218 29.2067 61.8338 29.2203 61.8459 29.2339C62.1717 29.1411 62.4976 29.0483 62.8496 28.9392ZM55.6819 29.2418C55.6646 29.2394 55.6473 29.2371 55.63 29.2347C55.6417 29.2443 55.6535 29.2539 55.6819 29.2418Z" fill="#FF6600"/>
<path d="M86.0726 26.5285C86.3843 26.0882 86.6879 25.659 87.0069 25.2079C86.3086 25.0312 85.6543 24.849 84.9913 24.7025C84.2928 24.5482 83.5912 24.3896 82.8816 24.3039C82.1672 24.2176 81.4403 24.1779 80.7206 24.1932C80.0423 24.2077 79.3566 24.2823 78.7466 24.6249C78.2903 24.8813 77.8601 25.169 77.7041 25.6897C77.6124 25.9958 77.661 26.3092 77.8963 26.5358C78.1304 26.7612 78.4 26.966 78.6875 27.1234C79.0203 27.3058 79.3929 27.4202 79.7405 27.5796C79.8111 27.6119 79.8472 27.7135 79.9212 27.8127C79.4611 27.8698 79.0841 27.7703 78.7267 27.6298C78.1816 27.4155 77.7129 27.0968 77.4274 26.5783C77.2436 26.2445 77.1818 25.8985 77.2451 25.5183C77.2956 25.2146 77.393 24.9347 77.5638 24.6824C77.8394 24.2751 78.2564 24.0422 78.7225 23.8894C79.1511 23.7489 79.5952 23.6787 80.0489 23.6644C80.2766 23.6572 80.5066 23.6138 80.7311 23.6335C81.4 23.6921 82.0773 23.7252 82.7321 23.8564C84.2225 24.1551 85.7014 24.5065 87.2138 24.8428C87.3021 24.6746 87.4168 24.4689 87.5178 24.2572C87.5631 24.1624 87.6322 24.112 87.7219 24.1527C87.7689 24.174 87.7958 24.2619 87.8078 24.324C87.8483 24.533 87.715 24.6912 87.622 24.8604C87.6053 24.8908 87.5893 24.9217 87.561 24.9748C87.9995 25.069 88.4211 25.1597 88.8428 25.2502C89.6064 25.4141 90.3811 25.4736 91.1596 25.4267C91.4135 25.4114 91.6812 25.3394 91.9076 25.2278C92.292 25.0382 92.2814 24.6887 91.9178 24.4205C91.818 24.3468 91.7212 24.2675 91.6337 24.1809C91.6018 24.1493 91.5758 24.0588 91.5909 24.047C91.6371 24.0109 91.709 23.975 91.7632 23.9836C92.0613 24.0314 92.7072 24.5481 92.7184 24.9844C92.724 25.2029 92.6641 25.4063 92.4508 25.5491C92.0955 25.7869 91.6882 25.851 91.2782 25.8721C90.3275 25.9212 89.3983 25.764 88.4773 25.5522C88.1623 25.4797 87.8378 25.4394 87.5298 25.347C87.3897 25.305 87.343 25.3588 87.2922 25.439C87.0525 25.8174 86.8315 26.2073 86.5787 26.5773C86.1885 27.1484 85.7779 27.7067 85.3759 28.2703C85.335 28.3276 85.2936 28.3845 85.2465 28.4499C86.0149 28.4907 86.7747 28.378 87.5152 28.575C87.5668 28.5887 87.6109 28.6281 87.6637 28.6587C87.5923 28.8216 87.4405 28.8171 87.3116 28.823C86.8606 28.8434 86.4089 28.8496 85.9575 28.8634C85.6147 28.8738 85.2692 28.8675 84.9309 28.9109C84.8148 28.9259 84.7068 29.0603 84.6125 29.1559C84.4831 29.287 84.3771 29.4394 84.2487 29.5716C83.9488 29.88 83.6561 30.1968 83.3344 30.483C82.6157 31.1223 81.8903 31.7594 80.9844 32.1549C80.5017 32.3657 79.9982 32.5251 79.4682 32.5846C79.1553 32.6197 78.8381 32.6694 78.5262 32.6533C77.6866 32.6102 76.9662 32.3213 76.4925 31.611C76.3467 31.3923 76.2334 31.156 76.2597 30.8846C76.2643 30.8371 76.3008 30.7925 76.3226 30.7465C76.3708 30.7695 76.4329 30.7816 76.4639 30.8182C76.5091 30.8715 76.5458 30.9393 76.5623 31.0063C76.7474 31.7576 77.3502 32.1454 78.1018 32.2585C78.9504 32.3862 79.7292 32.172 80.4513 31.7959C80.9693 31.5261 81.4582 31.1848 81.9057 30.8147C82.5985 30.2417 83.2449 29.617 83.9108 29.0139C83.928 28.9984 83.9426 28.9802 83.9831 28.9367C83.7772 28.9367 83.6013 28.9446 83.4268 28.9325C83.364 28.9282 83.2518 28.8723 83.2537 28.8462C83.2598 28.7652 83.2875 28.647 83.3473 28.6165C83.4751 28.5514 83.6262 28.517 83.7717 28.498C83.978 28.4712 84.1991 28.5038 84.3923 28.4454C84.5235 28.4058 84.6297 28.2631 84.7263 28.1501C85.0888 27.7263 85.443 27.2961 85.7995 26.8677C85.8895 26.7596 85.9763 26.649 86.0726 26.5285Z" fill="#FF6600"/>
<path d="M43.3647 29.4005C42.8501 29.874 42.3103 30.3153 41.65 30.5943C41.3633 30.7155 41.0632 30.7753 40.7556 30.67C40.3398 30.5276 40.2155 30.1744 40.2989 29.797C40.3842 29.4107 40.6143 29.0994 40.8721 28.8014C41.3836 28.2101 42.0175 27.7745 42.7387 27.4574C43.2518 27.2317 43.7868 27.0536 44.3622 27.0725C44.6764 27.0828 44.983 27.16 45.0836 27.5028C45.1545 27.7442 45.156 27.9974 45.0264 28.2244C44.9899 28.2883 44.8785 28.3129 44.8014 28.3555C44.7793 28.2797 44.7195 28.1916 44.7412 28.1299C44.8745 27.7513 44.6135 27.5936 44.2944 27.6664C43.8728 27.7626 43.4596 27.8996 43.0519 28.0431C42.312 28.3034 41.718 28.7711 41.2125 29.3362C41.0308 29.5392 40.8937 29.7933 40.793 30.045C40.6883 30.307 40.8685 30.4558 41.1582 30.3886C41.5695 30.2931 41.9049 30.0639 42.2283 29.8199C42.6381 29.5108 43.0376 29.189 43.4409 28.8719C43.5434 28.7913 43.6543 28.7169 43.7413 28.6226C43.8316 28.5248 43.9314 28.5054 44.0599 28.5025C44.4083 28.4948 44.4521 28.6104 44.3558 28.9135C44.2583 29.2201 44.092 29.5061 43.9652 29.8048C43.914 29.9252 43.8765 30.0533 43.8527 30.1813C43.8264 30.3232 43.984 30.4863 44.1547 30.4526C44.5062 30.3833 44.8631 30.3066 45.1928 30.175C45.9722 29.864 46.655 29.399 47.292 28.8698C47.5632 28.6445 47.8444 28.4303 48.1198 28.212C47.8878 27.7239 48.0637 27.3194 48.3617 26.9669C48.635 26.6436 48.9566 26.3587 49.4137 26.2723C49.5581 26.245 49.694 26.2483 49.7697 26.3677C49.8515 26.4966 49.7835 26.6163 49.6796 26.7244C49.3147 27.1042 48.955 27.4887 48.597 27.8744C48.5404 27.9354 48.5023 28.0124 48.4546 28.0836C48.6826 28.2584 48.9216 28.2319 49.1563 28.1448C49.3522 28.0721 49.5489 27.9917 49.7261 27.8853C49.8821 27.7916 50.0303 27.785 50.192 27.8328C50.4924 27.9215 50.5268 28.055 50.3193 28.2841C50.009 28.6267 49.688 28.9616 49.3984 29.3197C48.8732 29.969 48.3931 30.6475 48.1391 31.4457C48.1018 31.5629 48.0683 31.6969 48.0907 31.8129C48.1511 32.1253 48.2579 32.1798 48.598 32.1957C48.9369 32.2116 49.2464 32.1183 49.5369 31.9786C49.9716 31.7695 50.3906 31.5306 50.8183 31.3079C50.8969 31.2671 50.9852 31.2434 51.074 31.2099C51.1407 31.39 51.0678 31.4722 50.9478 31.5711C50.594 31.8626 50.2259 32.1284 49.8022 32.3196C49.3935 32.5041 48.9605 32.5921 48.5132 32.5946C48.0181 32.5974 47.606 32.2788 47.5734 31.8884C47.5447 31.5458 47.5751 31.2091 47.6954 30.8816C47.9686 30.1378 48.3927 29.4784 48.9042 28.867C48.9783 28.7785 49.0519 28.6897 49.1162 28.6123C48.859 28.5679 48.5942 28.5222 48.2943 28.4705C47.8419 29.0193 47.2161 29.4599 46.5767 29.8769C45.9833 30.2639 45.3548 30.6075 44.6385 30.7374C44.3386 30.7918 44.0184 30.7969 43.723 30.6747C43.4156 30.5477 43.2341 30.1288 43.321 29.7761C43.3467 29.6717 43.3666 29.566 43.401 29.4414C43.415 29.4051 43.4173 29.3884 43.4195 29.3717C43.4012 29.3813 43.3829 29.3909 43.3647 29.4005Z" fill="#FF6600"/>
<path d="M72.9417 29.2203C72.6522 29.289 72.3772 29.3492 72.0782 29.4147C72.1261 29.5108 72.1523 29.5643 72.1792 29.6174C72.3798 30.0124 72.186 30.5114 71.8624 30.719C71.4451 30.9867 70.9974 31.1419 70.5045 31.1828C70.3072 31.1992 70.1059 31.2007 69.9089 31.1831C69.4654 31.1434 69.417 30.87 69.6152 30.5486C69.812 30.2295 70.1326 30.0222 70.4506 29.8261C70.7071 29.668 70.9813 29.5364 71.2478 29.3929C71.131 29.2372 70.9852 29.0833 70.8875 28.9052C70.6011 28.3832 70.7616 27.9795 71.2056 27.6626C71.6718 27.3298 72.1908 27.0773 72.7682 26.9621C73.0586 26.9041 73.3491 26.8853 73.6394 26.982C73.9226 27.0763 74.0746 27.2829 74.0952 27.5443C74.1123 27.7615 74.0073 27.9608 73.7946 28.0919C73.5898 28.2181 73.397 28.3622 73.1988 28.4983C73.1835 28.5088 73.1694 28.523 73.1523 28.5287C73.0548 28.5611 72.9413 28.5838 72.8967 28.4762C72.8789 28.4333 72.9505 28.3415 73.001 28.2898C73.1731 28.1136 73.3698 27.9574 73.5246 27.769C73.6025 27.6741 73.6674 27.5107 73.6366 27.4058C73.5898 27.2471 73.396 27.3076 73.2705 27.3198C72.894 27.3563 72.5438 27.4871 72.2217 27.6738C72.03 27.785 71.8345 27.9054 71.6811 28.0589C71.3655 28.3749 71.2967 28.5871 71.6671 29.0109C71.771 29.1297 71.866 29.1529 72.0356 29.1104C72.4988 28.9944 72.9709 28.9079 73.4428 28.8282C74.164 28.7065 74.8941 28.7086 75.6235 28.7161C75.68 28.7167 75.7476 28.7098 75.7896 28.7363C75.8305 28.762 75.8664 28.8269 75.8646 28.8731C75.8632 28.9077 75.7987 28.9679 75.7619 28.9682C75.6369 28.9693 75.5104 28.9312 75.3869 28.9399C74.9981 28.9672 74.6096 29.0026 74.2224 29.0467C73.7994 29.0949 73.3781 29.1563 72.9417 29.2203ZM70.0783 30.6926C70.0152 30.8214 70.1064 30.8223 70.194 30.8159C70.615 30.785 70.9805 30.622 71.3354 30.4081C71.6419 30.2234 71.7389 29.8325 71.4404 29.5895C71.3449 29.6404 71.2372 29.6871 71.1417 29.7506C70.7494 30.0111 70.3514 30.2669 70.0783 30.6926Z" fill="#FF6600"/>
<path d="M18.6104 19.108C20.0899 19.0944 21.5788 19.0944 23.0816 19.0944C23.0816 12.7543 23.0816 6.42651 23.0816 0.0715887C21.6258 0.0715887 20.1708 0.0715887 18.6977 0.0722847C18.7188 0.0611919 18.758 0.0391442 18.7972 0.0390961C20.2354 0.0373338 21.6735 0.037614 23.1235 0.037614C23.1235 6.40035 23.1235 12.7582 23.1235 19.13C23.0529 19.13 22.9843 19.13 22.9158 19.13C21.5537 19.13 20.1917 19.1301 18.8297 19.1296C18.7597 19.1296 18.6896 19.1244 18.6104 19.108Z" fill="#8A8585"/>
<path d="M110.764 0.043457C110.713 0.0501349 110.644 0.0625658 110.575 0.0626943C108.632 0.0663153 106.688 0.0686983 104.745 0.0712655C104.67 0.0713645 104.595 0.0712781 104.496 0.0712781C104.496 6.41126 104.496 12.7326 104.497 19.0808C104.496 19.1141 104.496 19.1207 104.495 19.1273C104.482 19.0861 104.458 19.0448 104.458 19.0036C104.457 12.7008 104.457 6.39796 104.457 0.0951351C104.457 0.0832799 104.46 0.0714252 104.464 0.0434764C106.557 0.0434764 108.652 0.0434764 110.764 0.043457Z" fill="#8A8585"/>
<path d="M44.8927 0.0581008C43.4377 0.0720631 41.9743 0.0720631 40.4846 0.0720631C40.4846 0.168065 40.4846 0.245586 40.4846 0.323107C40.4846 4.26112 40.4847 8.19913 40.484 12.1371C40.484 12.2597 40.4759 12.3822 40.4616 12.5159C40.4499 10.8393 40.4473 9.15157 40.4467 7.46383C40.4459 4.99665 40.4465 2.52947 40.4465 0.0521357C40.4754 0.0466452 40.5044 0.0363064 40.5334 0.0362901C41.9584 0.0354855 43.3834 0.0355243 44.8085 0.035911C44.8337 0.0359178 44.859 0.0412768 44.8927 0.0581008Z" fill="#8A8585"/>
<path d="M92.1684 26.9498C92.125 26.6035 92.1682 26.5151 92.4917 26.4365C92.7861 26.365 93.091 26.3337 93.3913 26.2847C93.4079 26.3131 93.4244 26.3416 93.4409 26.37C93.3866 26.4252 93.3421 26.5101 93.2763 26.53C93.0658 26.5939 92.9317 26.7171 92.8177 26.8985C92.6648 27.1419 92.3117 27.1628 92.1684 26.9498Z" fill="#FF6600"/>
<path d="M53.5811 26.4679C53.9371 26.3575 54.2804 26.2759 54.6372 26.3423C54.6459 26.366 54.6545 26.3897 54.6631 26.4134C54.5503 26.4778 54.4322 26.5351 54.3264 26.6087C54.2344 26.6726 54.1596 26.7588 54.0714 26.8283C53.9545 26.9203 53.8432 27.0323 53.7081 27.0851C53.6035 27.126 53.4528 27.1204 53.3916 26.9707C53.3251 26.8078 53.3754 26.6069 53.5055 26.5126C53.5256 26.498 53.5458 26.4835 53.5811 26.4679Z" fill="#FF6600"/>
<path d="M18.6673 0.0776367C18.682 4.55779 18.6821 9.04575 18.681 13.5337C18.6809 13.5977 18.6653 13.6617 18.6472 13.7172C18.6397 13.6353 18.6436 13.5618 18.6436 13.4883C18.6439 9.09401 18.6438 4.69976 18.6442 0.305513C18.6442 0.232155 18.6496 0.158798 18.6673 0.0776367Z" fill="#8A8585"/>
<path d="M104.513 19.1296C104.496 19.1213 104.496 19.1145 104.498 19.0976C104.582 19.0898 104.665 19.0941 104.748 19.0941C108.939 19.0932 113.13 19.0918 117.339 19.0924C117.301 19.1079 117.244 19.1332 117.187 19.1332C112.969 19.1338 108.75 19.1324 104.513 19.1296Z" fill="#8A8585"/>
<path d="M44.9131 12.267C44.8977 8.21713 44.8976 4.16101 44.8975 0.0874023C44.9101 0.118989 44.9341 0.168055 44.9342 0.21713C44.9359 4.20734 44.9357 8.19755 44.9354 12.1878C44.9354 12.2121 44.9309 12.2365 44.9131 12.267Z" fill="#8A8585"/>
<path d="M95.8496 19.1065C97.4389 19.0939 99.0412 19.0932 100.643 19.0914C100.719 19.0913 100.795 19.0812 100.879 19.062C100.889 19.0748 100.891 19.1013 100.893 19.1279C100.855 19.1291 100.817 19.1314 100.779 19.1314C99.1774 19.1315 97.5762 19.1316 95.9751 19.1309C95.9376 19.1309 95.9001 19.1226 95.8496 19.1065Z" fill="#8A8585"/>
<path d="M78.1084 19.1112C78.1094 19.0947 78.1161 19.0934 78.133 19.0899C79.5995 19.0895 81.0558 19.0914 82.5297 19.0957C82.5212 19.1094 82.4951 19.1307 82.469 19.1307C81.0174 19.1304 79.5658 19.1283 78.1084 19.1112Z" fill="#8A8585"/>
<path d="M36.2398 15.7808C36.2349 15.7924 36.2123 15.8112 36.1899 15.8111C35.5198 15.8094 34.8497 15.8057 34.168 15.7925C34.845 15.7815 35.5336 15.7804 36.2398 15.7808Z" fill="#8A8585"/>
<path d="M101.133 6.74416C101.116 6.31649 101.113 5.88136 101.114 5.42871C101.131 5.42885 101.157 5.44654 101.157 5.46416C101.156 5.88834 101.152 6.31251 101.133 6.74416Z" fill="#8A8585"/>
<path d="M116.807 0.0215883C116.507 0.0369948 116.199 0.0371816 115.874 0.0370928C115.95 0.0242109 116.044 0.00230282 116.138 0.000864454C116.359 -0.00251009 116.58 0.00391247 116.807 0.0215883Z" fill="#8A8585"/>
<path d="M108.939 3.50732C108.952 3.55576 108.948 3.61083 108.948 3.6659C108.947 7.64202 108.947 11.6181 108.94 15.6103C108.933 15.6264 108.917 15.626 108.917 15.626C108.914 15.5648 108.909 15.5036 108.909 15.4424C108.909 11.5269 108.909 7.61149 108.91 3.69604C108.91 3.63535 108.919 3.57466 108.939 3.50732Z" fill="#8A8585"/>
<path d="M108.926 15.6389C108.918 15.6259 108.934 15.6263 108.942 15.6275C111.495 15.6288 114.039 15.6289 116.584 15.6293C116.699 15.6293 116.814 15.6322 116.946 15.6344C116.889 15.6457 116.815 15.6653 116.741 15.6654C114.183 15.667 111.625 15.6669 109.067 15.6662C109.023 15.6662 108.979 15.6568 108.926 15.6389Z" fill="#8A8585"/>
<path d="M116.53 3.48622C115.186 3.49808 113.831 3.50076 112.475 3.50183C111.324 3.50273 110.174 3.50176 109.005 3.50076C109.041 3.48806 109.094 3.4659 109.147 3.46587C111.56 3.46437 113.973 3.46475 116.386 3.4655C116.43 3.46551 116.474 3.47257 116.53 3.48622Z" fill="#8A8585"/>
<path d="M35.4369 27.4812C35.4248 27.4986 35.4063 27.5083 35.3877 27.5179C35.3899 27.5011 35.3922 27.4843 35.4051 27.4634C35.4206 27.4639 35.4256 27.4686 35.4369 27.4812Z" fill="#8A8585"/>
<path d="M32.3666 26.3386C32.3545 26.3561 32.3359 26.3657 32.3174 26.3754C32.3196 26.3586 32.3219 26.3418 32.3348 26.3208C32.3503 26.3213 32.3552 26.3261 32.3666 26.3386Z" fill="#8A8585"/>
<rect x="48.3008" y="0.0874023" width="29.1304" height="19.731" rx="9.86551" fill="#FF6600"/>
<rect x="52.8525" y="3.16992" width="20.0283" height="13.5659" rx="6.78295" fill="#F2EEEE"/>
<path d="M48.8141 8.113L77.0096 8.03223L77.1434 9.65432V11.8742H48.6865L48.8141 8.113Z" fill="#FF6600"/>
</svg>
